<mxfile host="www.draw.io" modified="2020-02-14T04:54:51.944Z" agent="Mozilla/5.0 (Windows NT 10.0; Win64; x64) AppleWebKit/537.36 (KHTML, like Gecko) Chrome/80.0.3987.100 Safari/537.36" etag="QGeSi6hIhoaXjoxoczY2" version="12.7.0" type="github">
  <diagram id="qnvLAeOahHRdcpvroYUL" name="Page-1">
    <mxGraphModel dx="1019" dy="519" grid="1" gridSize="10" guides="1" tooltips="1" connect="1" arrows="1" fold="1" page="1" pageScale="1" pageWidth="827" pageHeight="1169" math="0" shadow="0">
      <root>
        <mxCell id="0"/>
        <mxCell id="1" parent="0"/>
        <mxCell id="tPSSgy20HXyKbWYkyoau-40" value="" style="html=1;verticalAlign=bottom;endArrow=block;fontSize=25;fontFamily=Times New Roman;" edge="1" parent="1">
          <mxGeometry width="80" relative="1" as="geometry">
            <mxPoint x="523" y="120" as="sourcePoint"/>
            <mxPoint x="553" y="120" as="targetPoint"/>
          </mxGeometry>
        </mxCell>
        <mxCell id="RUoRTHbxr52IHqTM27ya-61" value="" style="html=1;verticalAlign=bottom;endArrow=block;fontSize=25;fontFamily=Times New Roman;" parent="1" edge="1">
          <mxGeometry width="80" relative="1" as="geometry">
            <mxPoint x="179" y="238" as="sourcePoint"/>
            <mxPoint x="209" y="238" as="targetPoint"/>
          </mxGeometry>
        </mxCell>
        <mxCell id="RUoRTHbxr52IHqTM27ya-1" value="g&lt;sub&gt;1&lt;/sub&gt;" style="ellipse;whiteSpace=wrap;html=1;aspect=fixed;fontSize=25;fontStyle=2;fontFamily=Times New Roman;fillColor=#3399FF;" parent="1" vertex="1">
          <mxGeometry x="140" y="480" width="60" height="60" as="geometry"/>
        </mxCell>
        <mxCell id="RUoRTHbxr52IHqTM27ya-22" value="" style="edgeStyle=orthogonalEdgeStyle;rounded=0;orthogonalLoop=1;jettySize=auto;html=1;fontSize=25;fontStyle=2;exitX=0;exitY=0.5;exitDx=0;exitDy=0;fontFamily=Times New Roman;" parent="1" source="RUoRTHbxr52IHqTM27ya-13" target="RUoRTHbxr52IHqTM27ya-2" edge="1">
          <mxGeometry relative="1" as="geometry">
            <mxPoint x="250" y="350" as="sourcePoint"/>
          </mxGeometry>
        </mxCell>
        <mxCell id="clvgTeOOFxfK2EVjI2t1-62" value="" style="edgeStyle=orthogonalEdgeStyle;rounded=0;orthogonalLoop=1;jettySize=auto;html=1;" parent="1" source="RUoRTHbxr52IHqTM27ya-2" target="clvgTeOOFxfK2EVjI2t1-61" edge="1">
          <mxGeometry relative="1" as="geometry"/>
        </mxCell>
        <mxCell id="RUoRTHbxr52IHqTM27ya-2" value="" style="whiteSpace=wrap;html=1;aspect=fixed;fontSize=25;fontStyle=2;fontFamily=Times New Roman;fontColor=#00FF00;fillColor=#4D9900;" parent="1" vertex="1">
          <mxGeometry x="110" y="320" width="60" height="60" as="geometry"/>
        </mxCell>
        <mxCell id="tPSSgy20HXyKbWYkyoau-12" value="" style="edgeStyle=orthogonalEdgeStyle;rounded=0;orthogonalLoop=1;jettySize=auto;html=1;entryX=0.5;entryY=1;entryDx=0;entryDy=0;" edge="1" parent="1" source="RUoRTHbxr52IHqTM27ya-3" target="clvgTeOOFxfK2EVjI2t1-65">
          <mxGeometry relative="1" as="geometry">
            <mxPoint x="220" y="300" as="targetPoint"/>
            <Array as="points">
              <mxPoint x="220" y="300"/>
              <mxPoint x="190" y="300"/>
            </Array>
          </mxGeometry>
        </mxCell>
        <mxCell id="RUoRTHbxr52IHqTM27ya-3" value="" style="whiteSpace=wrap;html=1;aspect=fixed;fontSize=25;fontStyle=2;fontFamily=Times New Roman;labelBackgroundColor=#00FF00;fillColor=#4D9900;" parent="1" vertex="1">
          <mxGeometry x="190" y="380" width="60" height="60" as="geometry"/>
        </mxCell>
        <mxCell id="RUoRTHbxr52IHqTM27ya-5" value="" style="edgeStyle=elbowEdgeStyle;elbow=vertical;endArrow=classic;html=1;fontSize=25;fontStyle=2;fontFamily=Times New Roman;" parent="1" edge="1">
          <mxGeometry width="50" height="50" relative="1" as="geometry">
            <mxPoint x="170" y="480" as="sourcePoint"/>
            <mxPoint x="220" y="441" as="targetPoint"/>
          </mxGeometry>
        </mxCell>
        <mxCell id="RUoRTHbxr52IHqTM27ya-6" value="" style="edgeStyle=elbowEdgeStyle;elbow=vertical;endArrow=classic;html=1;fontSize=25;fontStyle=2;fontFamily=Times New Roman;" parent="1" edge="1">
          <mxGeometry width="50" height="50" relative="1" as="geometry">
            <mxPoint x="170" y="480" as="sourcePoint"/>
            <mxPoint x="140" y="380" as="targetPoint"/>
          </mxGeometry>
        </mxCell>
        <mxCell id="RUoRTHbxr52IHqTM27ya-12" value="g&lt;sub&gt;2&lt;/sub&gt;" style="ellipse;whiteSpace=wrap;html=1;aspect=fixed;fontSize=25;fontStyle=2;fontFamily=Times New Roman;fillColor=#3399FF;" parent="1" vertex="1">
          <mxGeometry x="294" y="480" width="60" height="60" as="geometry"/>
        </mxCell>
        <mxCell id="tPSSgy20HXyKbWYkyoau-6" value="" style="edgeStyle=orthogonalEdgeStyle;rounded=0;orthogonalLoop=1;jettySize=auto;html=1;" edge="1" parent="1" source="RUoRTHbxr52IHqTM27ya-13" target="clvgTeOOFxfK2EVjI2t1-66">
          <mxGeometry relative="1" as="geometry"/>
        </mxCell>
        <mxCell id="RUoRTHbxr52IHqTM27ya-13" value="" style="whiteSpace=wrap;html=1;aspect=fixed;fontSize=25;fontStyle=2;fontFamily=Times New Roman;gradientColor=none;fillColor=#4D9900;" parent="1" vertex="1">
          <mxGeometry x="264" y="320" width="60" height="60" as="geometry"/>
        </mxCell>
        <mxCell id="tPSSgy20HXyKbWYkyoau-10" value="" style="edgeStyle=orthogonalEdgeStyle;rounded=0;orthogonalLoop=1;jettySize=auto;html=1;entryX=0.5;entryY=1;entryDx=0;entryDy=0;" edge="1" parent="1" source="RUoRTHbxr52IHqTM27ya-14" target="clvgTeOOFxfK2EVjI2t1-68">
          <mxGeometry relative="1" as="geometry">
            <mxPoint x="374" y="300" as="targetPoint"/>
            <Array as="points">
              <mxPoint x="374" y="300"/>
              <mxPoint x="344" y="300"/>
            </Array>
          </mxGeometry>
        </mxCell>
        <mxCell id="RUoRTHbxr52IHqTM27ya-14" value="" style="whiteSpace=wrap;html=1;aspect=fixed;fontSize=25;fontStyle=2;fontFamily=Times New Roman;fillColor=#4D9900;" parent="1" vertex="1">
          <mxGeometry x="344" y="380" width="60" height="60" as="geometry"/>
        </mxCell>
        <mxCell id="RUoRTHbxr52IHqTM27ya-15" value="" style="edgeStyle=elbowEdgeStyle;elbow=vertical;endArrow=classic;html=1;fontSize=25;fontStyle=2;fontFamily=Times New Roman;" parent="1" edge="1">
          <mxGeometry width="50" height="50" relative="1" as="geometry">
            <mxPoint x="324" y="480" as="sourcePoint"/>
            <mxPoint x="374" y="441" as="targetPoint"/>
          </mxGeometry>
        </mxCell>
        <mxCell id="RUoRTHbxr52IHqTM27ya-16" value="" style="edgeStyle=elbowEdgeStyle;elbow=vertical;endArrow=classic;html=1;fontSize=25;fontStyle=2;fontFamily=Times New Roman;" parent="1" edge="1">
          <mxGeometry width="50" height="50" relative="1" as="geometry">
            <mxPoint x="324" y="480" as="sourcePoint"/>
            <mxPoint x="294" y="380" as="targetPoint"/>
          </mxGeometry>
        </mxCell>
        <mxCell id="RUoRTHbxr52IHqTM27ya-20" value="" style="endArrow=classic;html=1;exitX=1;exitY=0.5;exitDx=0;exitDy=0;entryX=0;entryY=0.5;entryDx=0;entryDy=0;fontSize=25;fontStyle=2;fontFamily=Times New Roman;" parent="1" source="RUoRTHbxr52IHqTM27ya-3" target="RUoRTHbxr52IHqTM27ya-14" edge="1">
          <mxGeometry width="50" height="50" relative="1" as="geometry">
            <mxPoint x="-80" y="500" as="sourcePoint"/>
            <mxPoint x="-30" y="450" as="targetPoint"/>
          </mxGeometry>
        </mxCell>
        <mxCell id="RUoRTHbxr52IHqTM27ya-26" value="" style="endArrow=classic;html=1;exitX=1;exitY=0.5;exitDx=0;exitDy=0;entryX=0;entryY=0.5;entryDx=0;entryDy=0;fontSize=25;fontStyle=2;fontFamily=Times New Roman;" parent="1" edge="1">
          <mxGeometry width="50" height="50" relative="1" as="geometry">
            <mxPoint x="404" y="410" as="sourcePoint"/>
            <mxPoint x="498" y="410" as="targetPoint"/>
          </mxGeometry>
        </mxCell>
        <mxCell id="RUoRTHbxr52IHqTM27ya-27" value="" style="endArrow=classic;html=1;exitX=1;exitY=0.5;exitDx=0;exitDy=0;entryX=0;entryY=0.5;entryDx=0;entryDy=0;fontSize=25;fontStyle=2;fontFamily=Times New Roman;" parent="1" edge="1">
          <mxGeometry width="50" height="50" relative="1" as="geometry">
            <mxPoint x="418" y="350" as="sourcePoint"/>
            <mxPoint x="324" y="350" as="targetPoint"/>
          </mxGeometry>
        </mxCell>
        <mxCell id="RUoRTHbxr52IHqTM27ya-28" value="g&lt;span style=&quot;font-size: 20.8333px&quot;&gt;&lt;sub&gt;k&lt;/sub&gt;&lt;/span&gt;" style="ellipse;whiteSpace=wrap;html=1;aspect=fixed;fontSize=25;fontStyle=2;fontFamily=Times New Roman;labelBackgroundColor=none;fillColor=#3399FF;" parent="1" vertex="1">
          <mxGeometry x="594" y="480" width="60" height="60" as="geometry"/>
        </mxCell>
        <mxCell id="tPSSgy20HXyKbWYkyoau-1" value="" style="edgeStyle=orthogonalEdgeStyle;rounded=0;orthogonalLoop=1;jettySize=auto;html=1;" edge="1" parent="1" source="RUoRTHbxr52IHqTM27ya-29" target="clvgTeOOFxfK2EVjI2t1-69">
          <mxGeometry relative="1" as="geometry"/>
        </mxCell>
        <mxCell id="RUoRTHbxr52IHqTM27ya-29" value="" style="whiteSpace=wrap;html=1;aspect=fixed;fontSize=25;fontStyle=2;fontFamily=Times New Roman;fillColor=#4D9900;" parent="1" vertex="1">
          <mxGeometry x="564" y="320" width="60" height="60" as="geometry"/>
        </mxCell>
        <mxCell id="tPSSgy20HXyKbWYkyoau-5" value="" style="edgeStyle=orthogonalEdgeStyle;rounded=0;orthogonalLoop=1;jettySize=auto;html=1;entryX=0.5;entryY=1;entryDx=0;entryDy=0;" edge="1" parent="1" source="RUoRTHbxr52IHqTM27ya-30" target="clvgTeOOFxfK2EVjI2t1-70">
          <mxGeometry relative="1" as="geometry">
            <mxPoint x="674" y="300" as="targetPoint"/>
            <Array as="points">
              <mxPoint x="674" y="300"/>
              <mxPoint x="654" y="300"/>
            </Array>
          </mxGeometry>
        </mxCell>
        <mxCell id="RUoRTHbxr52IHqTM27ya-30" value="" style="whiteSpace=wrap;html=1;aspect=fixed;fontSize=25;fontStyle=2;fontFamily=Times New Roman;fillColor=#4D9900;" parent="1" vertex="1">
          <mxGeometry x="644" y="380" width="60" height="60" as="geometry"/>
        </mxCell>
        <mxCell id="RUoRTHbxr52IHqTM27ya-31" value="" style="edgeStyle=elbowEdgeStyle;elbow=vertical;endArrow=classic;html=1;fontSize=25;fontStyle=2;fontFamily=Times New Roman;" parent="1" edge="1">
          <mxGeometry width="50" height="50" relative="1" as="geometry">
            <mxPoint x="624" y="480" as="sourcePoint"/>
            <mxPoint x="674" y="441" as="targetPoint"/>
          </mxGeometry>
        </mxCell>
        <mxCell id="RUoRTHbxr52IHqTM27ya-32" value="" style="edgeStyle=elbowEdgeStyle;elbow=vertical;endArrow=classic;html=1;fontSize=25;fontStyle=2;fontFamily=Times New Roman;" parent="1" edge="1">
          <mxGeometry width="50" height="50" relative="1" as="geometry">
            <mxPoint x="624" y="480" as="sourcePoint"/>
            <mxPoint x="594" y="380" as="targetPoint"/>
          </mxGeometry>
        </mxCell>
        <mxCell id="RUoRTHbxr52IHqTM27ya-36" value="" style="endArrow=classic;html=1;exitX=1;exitY=0.5;exitDx=0;exitDy=0;entryX=0;entryY=0.5;entryDx=0;entryDy=0;fontSize=25;fontStyle=2;fontFamily=Times New Roman;" parent="1" target="RUoRTHbxr52IHqTM27ya-30" edge="1">
          <mxGeometry width="50" height="50" relative="1" as="geometry">
            <mxPoint x="550" y="410" as="sourcePoint"/>
            <mxPoint x="270" y="450" as="targetPoint"/>
          </mxGeometry>
        </mxCell>
        <mxCell id="RUoRTHbxr52IHqTM27ya-37" value="" style="endArrow=classic;html=1;exitX=1;exitY=0.5;exitDx=0;exitDy=0;entryX=0;entryY=0.5;entryDx=0;entryDy=0;fontSize=25;fontStyle=2;fontFamily=Times New Roman;" parent="1" edge="1">
          <mxGeometry width="50" height="50" relative="1" as="geometry">
            <mxPoint x="704" y="410" as="sourcePoint"/>
            <mxPoint x="798" y="410" as="targetPoint"/>
          </mxGeometry>
        </mxCell>
        <mxCell id="RUoRTHbxr52IHqTM27ya-39" value="" style="endArrow=classic;html=1;exitX=1;exitY=0.5;exitDx=0;exitDy=0;entryX=0;entryY=0.5;entryDx=0;entryDy=0;fontSize=25;fontStyle=2;fontFamily=Times New Roman;" parent="1" edge="1">
          <mxGeometry width="50" height="50" relative="1" as="geometry">
            <mxPoint x="564" y="349.5" as="sourcePoint"/>
            <mxPoint x="470" y="349.5" as="targetPoint"/>
          </mxGeometry>
        </mxCell>
        <mxCell id="RUoRTHbxr52IHqTM27ya-41" value="&lt;b style=&quot;font-size: 25px;&quot;&gt;&lt;font style=&quot;font-size: 25px;&quot;&gt;...&lt;/font&gt;&lt;/b&gt;" style="text;html=1;strokeColor=none;fillColor=none;align=center;verticalAlign=middle;whiteSpace=wrap;rounded=0;fontSize=25;fontStyle=2;fontFamily=Times New Roman;" parent="1" vertex="1">
          <mxGeometry x="519" y="400" width="10" as="geometry"/>
        </mxCell>
        <mxCell id="RUoRTHbxr52IHqTM27ya-47" value="&lt;b style=&quot;font-size: 25px;&quot;&gt;&lt;font style=&quot;font-size: 25px;&quot;&gt;...&lt;/font&gt;&lt;/b&gt;" style="text;html=1;strokeColor=none;fillColor=none;align=center;verticalAlign=middle;whiteSpace=wrap;rounded=0;fontSize=25;fontStyle=2;fontFamily=Times New Roman;" parent="1" vertex="1">
          <mxGeometry x="441" y="342" width="10" as="geometry"/>
        </mxCell>
        <mxCell id="RUoRTHbxr52IHqTM27ya-51" value="" style="edgeStyle=orthogonalEdgeStyle;rounded=0;orthogonalLoop=1;jettySize=auto;html=1;entryX=0;entryY=0.5;entryDx=0;entryDy=0;fontSize=25;fontStyle=2;fontFamily=Times New Roman;" parent="1" edge="1">
          <mxGeometry relative="1" as="geometry">
            <mxPoint x="110" y="350" as="sourcePoint"/>
            <mxPoint x="16" y="350" as="targetPoint"/>
          </mxGeometry>
        </mxCell>
        <mxCell id="RUoRTHbxr52IHqTM27ya-57" value="" style="html=1;verticalAlign=bottom;endArrow=block;fontSize=25;fontFamily=Times New Roman;" parent="1" edge="1">
          <mxGeometry width="80" relative="1" as="geometry">
            <mxPoint x="333" y="238" as="sourcePoint"/>
            <mxPoint x="363" y="238" as="targetPoint"/>
          </mxGeometry>
        </mxCell>
        <mxCell id="RUoRTHbxr52IHqTM27ya-58" value="&lt;i&gt;y&lt;span style=&quot;font-size: 20.8333px&quot;&gt;&lt;sub&gt;2&lt;/sub&gt;&lt;/span&gt;&lt;/i&gt;" style="text;html=1;strokeColor=none;fillColor=none;align=center;verticalAlign=middle;whiteSpace=wrap;rounded=0;fontSize=25;fontFamily=Times New Roman;" parent="1" vertex="1">
          <mxGeometry x="324" y="246" width="40" height="20" as="geometry"/>
        </mxCell>
        <mxCell id="RUoRTHbxr52IHqTM27ya-59" value="" style="html=1;verticalAlign=bottom;endArrow=block;fontSize=25;fontFamily=Times New Roman;" parent="1" edge="1">
          <mxGeometry width="80" relative="1" as="geometry">
            <mxPoint x="643" y="241" as="sourcePoint"/>
            <mxPoint x="673" y="241" as="targetPoint"/>
          </mxGeometry>
        </mxCell>
        <mxCell id="RUoRTHbxr52IHqTM27ya-60" value="&lt;i&gt;y&lt;span style=&quot;font-size: 14.4676px&quot;&gt;&lt;sub&gt;k&lt;/sub&gt;&lt;/span&gt;&lt;/i&gt;" style="text;html=1;strokeColor=none;fillColor=none;align=center;verticalAlign=middle;whiteSpace=wrap;rounded=0;fontSize=25;fontFamily=Times New Roman;" parent="1" vertex="1">
          <mxGeometry x="634" y="249" width="40" height="22" as="geometry"/>
        </mxCell>
        <mxCell id="RUoRTHbxr52IHqTM27ya-62" value="&lt;i&gt;y&lt;span style=&quot;font-size: 20.8333px&quot;&gt;&lt;sub&gt;1&lt;/sub&gt;&lt;/span&gt;&lt;/i&gt;" style="text;html=1;strokeColor=none;fillColor=none;align=center;verticalAlign=middle;whiteSpace=wrap;rounded=0;fontSize=25;fontFamily=Times New Roman;" parent="1" vertex="1">
          <mxGeometry x="170" y="246" width="40" height="20" as="geometry"/>
        </mxCell>
        <mxCell id="RUoRTHbxr52IHqTM27ya-63" value="" style="html=1;verticalAlign=bottom;endArrow=block;fontSize=25;fontFamily=Times New Roman;" parent="1" edge="1">
          <mxGeometry width="80" relative="1" as="geometry">
            <mxPoint x="293" y="238" as="sourcePoint"/>
            <mxPoint x="263" y="238" as="targetPoint"/>
          </mxGeometry>
        </mxCell>
        <mxCell id="RUoRTHbxr52IHqTM27ya-64" value="&lt;i&gt;y&lt;span style=&quot;font-size: 20.8333px&quot;&gt;&lt;sub&gt;2&lt;/sub&gt;&lt;/span&gt;&lt;/i&gt;" style="text;html=1;strokeColor=none;fillColor=none;align=center;verticalAlign=middle;whiteSpace=wrap;rounded=0;fontSize=25;fontFamily=Times New Roman;" parent="1" vertex="1">
          <mxGeometry x="254" y="246" width="40" height="20" as="geometry"/>
        </mxCell>
        <mxCell id="RUoRTHbxr52IHqTM27ya-65" value="" style="html=1;verticalAlign=bottom;endArrow=block;fontSize=25;fontFamily=Times New Roman;" parent="1" edge="1">
          <mxGeometry width="80" relative="1" as="geometry">
            <mxPoint x="133" y="238" as="sourcePoint"/>
            <mxPoint x="103" y="238" as="targetPoint"/>
          </mxGeometry>
        </mxCell>
        <mxCell id="RUoRTHbxr52IHqTM27ya-66" value="&lt;i&gt;y&lt;span style=&quot;font-size: 17.3611px&quot;&gt;&lt;sub&gt;1&lt;/sub&gt;&lt;/span&gt;&lt;/i&gt;" style="text;html=1;strokeColor=none;fillColor=none;align=center;verticalAlign=middle;whiteSpace=wrap;rounded=0;fontSize=25;fontFamily=Times New Roman;" parent="1" vertex="1">
          <mxGeometry x="94" y="246" width="40" height="20" as="geometry"/>
        </mxCell>
        <mxCell id="RUoRTHbxr52IHqTM27ya-67" value="" style="html=1;verticalAlign=bottom;endArrow=block;fontSize=25;fontFamily=Times New Roman;" parent="1" edge="1">
          <mxGeometry width="80" relative="1" as="geometry">
            <mxPoint x="592" y="237" as="sourcePoint"/>
            <mxPoint x="562" y="237" as="targetPoint"/>
          </mxGeometry>
        </mxCell>
        <mxCell id="RUoRTHbxr52IHqTM27ya-68" value="&lt;i&gt;y&lt;span style=&quot;font-size: 14.4676px&quot;&gt;&lt;sub&gt;k&lt;/sub&gt;&lt;/span&gt;&lt;/i&gt;" style="text;html=1;strokeColor=none;fillColor=none;align=center;verticalAlign=middle;whiteSpace=wrap;rounded=0;fontSize=25;fontFamily=Times New Roman;" parent="1" vertex="1">
          <mxGeometry x="553" y="245" width="40" height="22" as="geometry"/>
        </mxCell>
        <mxCell id="RUoRTHbxr52IHqTM27ya-73" value="A&lt;span style=&quot;font-size: 20.8333px&quot;&gt;&lt;i&gt;&lt;sub&gt;k&lt;/sub&gt;&lt;/i&gt;&lt;/span&gt;" style="text;html=1;strokeColor=none;fillColor=none;align=center;verticalAlign=middle;whiteSpace=wrap;rounded=0;fontSize=25;fontFamily=Times New Roman;" parent="1" vertex="1">
          <mxGeometry x="654" y="400" width="40" height="20" as="geometry"/>
        </mxCell>
        <mxCell id="RUoRTHbxr52IHqTM27ya-74" value="A&lt;sub&gt;&lt;i&gt;2&lt;/i&gt;&lt;/sub&gt;" style="text;html=1;strokeColor=none;fillColor=none;align=center;verticalAlign=middle;whiteSpace=wrap;rounded=0;fontSize=25;fontFamily=Times New Roman;" parent="1" vertex="1">
          <mxGeometry x="354" y="400" width="40" height="20" as="geometry"/>
        </mxCell>
        <mxCell id="RUoRTHbxr52IHqTM27ya-75" value="A&lt;sub&gt;&lt;i&gt;1&lt;/i&gt;&lt;/sub&gt;" style="text;html=1;strokeColor=none;fillColor=none;align=center;verticalAlign=middle;whiteSpace=wrap;rounded=0;fontSize=25;fontFamily=Times New Roman;" parent="1" vertex="1">
          <mxGeometry x="200" y="400" width="40" height="20" as="geometry"/>
        </mxCell>
        <mxCell id="RUoRTHbxr52IHqTM27ya-78" value="A&lt;sup&gt;&#39;&lt;/sup&gt;&lt;sub&gt;&lt;i&gt;2&lt;/i&gt;&lt;/sub&gt;" style="text;html=1;strokeColor=none;fillColor=none;align=center;verticalAlign=middle;whiteSpace=wrap;rounded=0;fontSize=25;fontFamily=Times New Roman;" parent="1" vertex="1">
          <mxGeometry x="274" y="340" width="40" height="20" as="geometry"/>
        </mxCell>
        <mxCell id="RUoRTHbxr52IHqTM27ya-79" value="A&lt;sup&gt;&#39;&lt;/sup&gt;&lt;sub&gt;&lt;i&gt;1&lt;/i&gt;&lt;/sub&gt;" style="text;html=1;strokeColor=none;fillColor=none;align=center;verticalAlign=middle;whiteSpace=wrap;rounded=0;fontSize=25;fontFamily=Times New Roman;" parent="1" vertex="1">
          <mxGeometry x="120" y="340" width="40" height="20" as="geometry"/>
        </mxCell>
        <mxCell id="RUoRTHbxr52IHqTM27ya-80" value="A&lt;sup&gt;&#39;&lt;/sup&gt;&lt;i&gt;&lt;sub&gt;k&lt;/sub&gt;&lt;/i&gt;" style="text;html=1;strokeColor=none;fillColor=none;align=center;verticalAlign=middle;whiteSpace=wrap;rounded=0;fontSize=25;fontFamily=Times New Roman;" parent="1" vertex="1">
          <mxGeometry x="574" y="340" width="40" height="20" as="geometry"/>
        </mxCell>
        <mxCell id="RUoRTHbxr52IHqTM27ya-84" value="&lt;b style=&quot;font-size: 25px;&quot;&gt;&lt;font style=&quot;font-size: 25px;&quot;&gt;...&lt;/font&gt;&lt;/b&gt;" style="text;html=1;strokeColor=none;fillColor=none;align=center;verticalAlign=middle;whiteSpace=wrap;rounded=0;fontSize=25;fontStyle=2;fontFamily=Times New Roman;" parent="1" vertex="1">
          <mxGeometry x="479" y="505" width="10" as="geometry"/>
        </mxCell>
        <mxCell id="clvgTeOOFxfK2EVjI2t1-1" value="" style="html=1;verticalAlign=bottom;endArrow=block;fontSize=25;fontFamily=Times New Roman;" parent="1" edge="1">
          <mxGeometry width="80" relative="1" as="geometry">
            <mxPoint x="247" y="1055" as="sourcePoint"/>
            <mxPoint x="277" y="1055" as="targetPoint"/>
          </mxGeometry>
        </mxCell>
        <mxCell id="clvgTeOOFxfK2EVjI2t1-2" value="g&lt;sub&gt;1&lt;/sub&gt;" style="ellipse;whiteSpace=wrap;html=1;aspect=fixed;fontSize=25;fontStyle=2;fontFamily=Times New Roman;fillColor=#3399FF;" parent="1" vertex="1">
          <mxGeometry x="164" y="1240" width="60" height="60" as="geometry"/>
        </mxCell>
        <mxCell id="clvgTeOOFxfK2EVjI2t1-3" value="" style="edgeStyle=orthogonalEdgeStyle;rounded=0;orthogonalLoop=1;jettySize=auto;html=1;fontSize=25;fontStyle=2;exitX=0;exitY=0.5;exitDx=0;exitDy=0;fontFamily=Times New Roman;" parent="1" source="clvgTeOOFxfK2EVjI2t1-12" target="clvgTeOOFxfK2EVjI2t1-4" edge="1">
          <mxGeometry relative="1" as="geometry">
            <mxPoint x="274" y="1110" as="sourcePoint"/>
          </mxGeometry>
        </mxCell>
        <mxCell id="clvgTeOOFxfK2EVjI2t1-4" value="" style="whiteSpace=wrap;html=1;aspect=fixed;fontSize=25;fontStyle=2;fontFamily=Times New Roman;fontColor=#00FF00;fillColor=#4D9900;" parent="1" vertex="1">
          <mxGeometry x="134" y="1080" width="60" height="60" as="geometry"/>
        </mxCell>
        <mxCell id="clvgTeOOFxfK2EVjI2t1-5" value="" style="whiteSpace=wrap;html=1;aspect=fixed;fontSize=25;fontStyle=2;fontFamily=Times New Roman;labelBackgroundColor=#00FF00;fillColor=#4D9900;" parent="1" vertex="1">
          <mxGeometry x="214" y="1140" width="60" height="60" as="geometry"/>
        </mxCell>
        <mxCell id="clvgTeOOFxfK2EVjI2t1-6" value="" style="edgeStyle=elbowEdgeStyle;elbow=vertical;endArrow=classic;html=1;fontSize=25;fontStyle=2;fontFamily=Times New Roman;" parent="1" edge="1">
          <mxGeometry width="50" height="50" relative="1" as="geometry">
            <mxPoint x="194" y="1240" as="sourcePoint"/>
            <mxPoint x="244" y="1201" as="targetPoint"/>
          </mxGeometry>
        </mxCell>
        <mxCell id="clvgTeOOFxfK2EVjI2t1-7" value="" style="edgeStyle=elbowEdgeStyle;elbow=vertical;endArrow=classic;html=1;fontSize=25;fontStyle=2;fontFamily=Times New Roman;" parent="1" edge="1">
          <mxGeometry width="50" height="50" relative="1" as="geometry">
            <mxPoint x="194" y="1240" as="sourcePoint"/>
            <mxPoint x="164" y="1140" as="targetPoint"/>
          </mxGeometry>
        </mxCell>
        <mxCell id="clvgTeOOFxfK2EVjI2t1-8" value="" style="edgeStyle=elbowEdgeStyle;elbow=vertical;endArrow=classic;html=1;fontSize=25;fontStyle=2;fontFamily=Times New Roman;" parent="1" edge="1">
          <mxGeometry width="50" height="50" relative="1" as="geometry">
            <mxPoint x="164" y="1080" as="sourcePoint"/>
            <mxPoint x="194" y="1030" as="targetPoint"/>
          </mxGeometry>
        </mxCell>
        <mxCell id="clvgTeOOFxfK2EVjI2t1-9" value="" style="edgeStyle=elbowEdgeStyle;elbow=vertical;endArrow=classic;html=1;fontSize=25;fontStyle=2;fontFamily=Times New Roman;" parent="1" edge="1">
          <mxGeometry width="50" height="50" relative="1" as="geometry">
            <mxPoint x="244" y="1140" as="sourcePoint"/>
            <mxPoint x="194" y="1030" as="targetPoint"/>
            <Array as="points">
              <mxPoint x="224" y="1070"/>
            </Array>
          </mxGeometry>
        </mxCell>
        <mxCell id="clvgTeOOFxfK2EVjI2t1-10" value="" style="ellipse;whiteSpace=wrap;html=1;aspect=fixed;fontSize=25;fontStyle=2;fontFamily=Times New Roman;fillColor=#9999FF;" parent="1" vertex="1">
          <mxGeometry x="164" y="970" width="60" height="60" as="geometry"/>
        </mxCell>
        <mxCell id="clvgTeOOFxfK2EVjI2t1-11" value="g&lt;sub&gt;2&lt;/sub&gt;" style="ellipse;whiteSpace=wrap;html=1;aspect=fixed;fontSize=25;fontStyle=2;fontFamily=Times New Roman;fillColor=#3399FF;" parent="1" vertex="1">
          <mxGeometry x="318" y="1240" width="60" height="60" as="geometry"/>
        </mxCell>
        <mxCell id="clvgTeOOFxfK2EVjI2t1-12" value="" style="whiteSpace=wrap;html=1;aspect=fixed;fontSize=25;fontStyle=2;fontFamily=Times New Roman;gradientColor=none;fillColor=#4D9900;" parent="1" vertex="1">
          <mxGeometry x="288" y="1080" width="60" height="60" as="geometry"/>
        </mxCell>
        <mxCell id="clvgTeOOFxfK2EVjI2t1-13" value="" style="whiteSpace=wrap;html=1;aspect=fixed;fontSize=25;fontStyle=2;fontFamily=Times New Roman;fillColor=#4D9900;" parent="1" vertex="1">
          <mxGeometry x="368" y="1140" width="60" height="60" as="geometry"/>
        </mxCell>
        <mxCell id="clvgTeOOFxfK2EVjI2t1-14" value="" style="edgeStyle=elbowEdgeStyle;elbow=vertical;endArrow=classic;html=1;fontSize=25;fontStyle=2;fontFamily=Times New Roman;" parent="1" edge="1">
          <mxGeometry width="50" height="50" relative="1" as="geometry">
            <mxPoint x="348" y="1240" as="sourcePoint"/>
            <mxPoint x="398" y="1201" as="targetPoint"/>
          </mxGeometry>
        </mxCell>
        <mxCell id="clvgTeOOFxfK2EVjI2t1-15" value="" style="edgeStyle=elbowEdgeStyle;elbow=vertical;endArrow=classic;html=1;fontSize=25;fontStyle=2;fontFamily=Times New Roman;" parent="1" edge="1">
          <mxGeometry width="50" height="50" relative="1" as="geometry">
            <mxPoint x="348" y="1240" as="sourcePoint"/>
            <mxPoint x="318" y="1140" as="targetPoint"/>
          </mxGeometry>
        </mxCell>
        <mxCell id="clvgTeOOFxfK2EVjI2t1-16" value="" style="edgeStyle=elbowEdgeStyle;elbow=vertical;endArrow=classic;html=1;fontSize=25;fontStyle=2;fontFamily=Times New Roman;" parent="1" edge="1">
          <mxGeometry width="50" height="50" relative="1" as="geometry">
            <mxPoint x="318" y="1080" as="sourcePoint"/>
            <mxPoint x="348" y="1030" as="targetPoint"/>
          </mxGeometry>
        </mxCell>
        <mxCell id="clvgTeOOFxfK2EVjI2t1-17" value="" style="edgeStyle=elbowEdgeStyle;elbow=vertical;endArrow=classic;html=1;fontSize=25;fontStyle=2;fontFamily=Times New Roman;" parent="1" edge="1">
          <mxGeometry width="50" height="50" relative="1" as="geometry">
            <mxPoint x="398" y="1140" as="sourcePoint"/>
            <mxPoint x="348" y="1030" as="targetPoint"/>
            <Array as="points">
              <mxPoint x="378" y="1070"/>
            </Array>
          </mxGeometry>
        </mxCell>
        <mxCell id="clvgTeOOFxfK2EVjI2t1-18" value="" style="ellipse;whiteSpace=wrap;html=1;aspect=fixed;fontSize=25;fontStyle=2;fontFamily=Times New Roman;fillColor=#9999FF;" parent="1" vertex="1">
          <mxGeometry x="318" y="970" width="60" height="60" as="geometry"/>
        </mxCell>
        <mxCell id="clvgTeOOFxfK2EVjI2t1-19" value="" style="endArrow=classic;html=1;exitX=1;exitY=0.5;exitDx=0;exitDy=0;entryX=0;entryY=0.5;entryDx=0;entryDy=0;fontSize=25;fontStyle=2;fontFamily=Times New Roman;" parent="1" source="clvgTeOOFxfK2EVjI2t1-5" target="clvgTeOOFxfK2EVjI2t1-13" edge="1">
          <mxGeometry width="50" height="50" relative="1" as="geometry">
            <mxPoint x="-56" y="1260" as="sourcePoint"/>
            <mxPoint x="-6" y="1210" as="targetPoint"/>
          </mxGeometry>
        </mxCell>
        <mxCell id="clvgTeOOFxfK2EVjI2t1-20" value="" style="endArrow=classic;html=1;exitX=1;exitY=0.5;exitDx=0;exitDy=0;entryX=0;entryY=0.5;entryDx=0;entryDy=0;fontSize=25;fontStyle=2;fontFamily=Times New Roman;" parent="1" edge="1">
          <mxGeometry width="50" height="50" relative="1" as="geometry">
            <mxPoint x="428" y="1170" as="sourcePoint"/>
            <mxPoint x="522" y="1170" as="targetPoint"/>
          </mxGeometry>
        </mxCell>
        <mxCell id="clvgTeOOFxfK2EVjI2t1-21" value="" style="endArrow=classic;html=1;exitX=1;exitY=0.5;exitDx=0;exitDy=0;entryX=0;entryY=0.5;entryDx=0;entryDy=0;fontSize=25;fontStyle=2;fontFamily=Times New Roman;" parent="1" edge="1">
          <mxGeometry width="50" height="50" relative="1" as="geometry">
            <mxPoint x="442" y="1110" as="sourcePoint"/>
            <mxPoint x="348" y="1110" as="targetPoint"/>
          </mxGeometry>
        </mxCell>
        <mxCell id="clvgTeOOFxfK2EVjI2t1-22" value="g&lt;sub&gt;i&lt;/sub&gt;" style="ellipse;whiteSpace=wrap;html=1;aspect=fixed;fontSize=25;fontStyle=2;fontFamily=Times New Roman;labelBackgroundColor=none;fillColor=#3399FF;" parent="1" vertex="1">
          <mxGeometry x="618" y="1240" width="60" height="60" as="geometry"/>
        </mxCell>
        <mxCell id="clvgTeOOFxfK2EVjI2t1-23" value="" style="whiteSpace=wrap;html=1;aspect=fixed;fontSize=25;fontStyle=2;fontFamily=Times New Roman;fillColor=#4D9900;" parent="1" vertex="1">
          <mxGeometry x="588" y="1080" width="60" height="60" as="geometry"/>
        </mxCell>
        <mxCell id="clvgTeOOFxfK2EVjI2t1-24" value="" style="whiteSpace=wrap;html=1;aspect=fixed;fontSize=25;fontStyle=2;fontFamily=Times New Roman;fillColor=#4D9900;" parent="1" vertex="1">
          <mxGeometry x="668" y="1140" width="60" height="60" as="geometry"/>
        </mxCell>
        <mxCell id="clvgTeOOFxfK2EVjI2t1-25" value="" style="edgeStyle=elbowEdgeStyle;elbow=vertical;endArrow=classic;html=1;fontSize=25;fontStyle=2;fontFamily=Times New Roman;" parent="1" edge="1">
          <mxGeometry width="50" height="50" relative="1" as="geometry">
            <mxPoint x="648" y="1240" as="sourcePoint"/>
            <mxPoint x="698" y="1201" as="targetPoint"/>
          </mxGeometry>
        </mxCell>
        <mxCell id="clvgTeOOFxfK2EVjI2t1-26" value="" style="edgeStyle=elbowEdgeStyle;elbow=vertical;endArrow=classic;html=1;fontSize=25;fontStyle=2;fontFamily=Times New Roman;" parent="1" edge="1">
          <mxGeometry width="50" height="50" relative="1" as="geometry">
            <mxPoint x="648" y="1240" as="sourcePoint"/>
            <mxPoint x="618" y="1140" as="targetPoint"/>
          </mxGeometry>
        </mxCell>
        <mxCell id="clvgTeOOFxfK2EVjI2t1-27" value="" style="edgeStyle=elbowEdgeStyle;elbow=vertical;endArrow=classic;html=1;fontSize=25;fontStyle=2;fontFamily=Times New Roman;" parent="1" edge="1">
          <mxGeometry width="50" height="50" relative="1" as="geometry">
            <mxPoint x="618" y="1080" as="sourcePoint"/>
            <mxPoint x="648" y="1030" as="targetPoint"/>
          </mxGeometry>
        </mxCell>
        <mxCell id="clvgTeOOFxfK2EVjI2t1-28" value="" style="edgeStyle=elbowEdgeStyle;elbow=vertical;endArrow=classic;html=1;fontSize=25;fontStyle=2;fontFamily=Times New Roman;" parent="1" edge="1">
          <mxGeometry width="50" height="50" relative="1" as="geometry">
            <mxPoint x="698" y="1140" as="sourcePoint"/>
            <mxPoint x="648" y="1030" as="targetPoint"/>
            <Array as="points">
              <mxPoint x="678" y="1070"/>
            </Array>
          </mxGeometry>
        </mxCell>
        <mxCell id="clvgTeOOFxfK2EVjI2t1-29" value="" style="ellipse;whiteSpace=wrap;html=1;aspect=fixed;fontSize=25;fontStyle=2;fontFamily=Times New Roman;fillColor=#9999FF;" parent="1" vertex="1">
          <mxGeometry x="618" y="970" width="60" height="60" as="geometry"/>
        </mxCell>
        <mxCell id="clvgTeOOFxfK2EVjI2t1-30" value="" style="endArrow=classic;html=1;exitX=1;exitY=0.5;exitDx=0;exitDy=0;entryX=0;entryY=0.5;entryDx=0;entryDy=0;fontSize=25;fontStyle=2;fontFamily=Times New Roman;" parent="1" target="clvgTeOOFxfK2EVjI2t1-24" edge="1">
          <mxGeometry width="50" height="50" relative="1" as="geometry">
            <mxPoint x="574" y="1170" as="sourcePoint"/>
            <mxPoint x="294" y="1210" as="targetPoint"/>
          </mxGeometry>
        </mxCell>
        <mxCell id="clvgTeOOFxfK2EVjI2t1-31" value="" style="endArrow=classic;html=1;exitX=1;exitY=0.5;exitDx=0;exitDy=0;entryX=0;entryY=0.5;entryDx=0;entryDy=0;fontSize=25;fontStyle=2;fontFamily=Times New Roman;" parent="1" edge="1">
          <mxGeometry width="50" height="50" relative="1" as="geometry">
            <mxPoint x="728" y="1170" as="sourcePoint"/>
            <mxPoint x="822" y="1170" as="targetPoint"/>
          </mxGeometry>
        </mxCell>
        <mxCell id="clvgTeOOFxfK2EVjI2t1-32" value="" style="endArrow=classic;html=1;exitX=1;exitY=0.5;exitDx=0;exitDy=0;entryX=0;entryY=0.5;entryDx=0;entryDy=0;fontSize=25;fontStyle=2;fontFamily=Times New Roman;" parent="1" edge="1">
          <mxGeometry width="50" height="50" relative="1" as="geometry">
            <mxPoint x="742" y="1110" as="sourcePoint"/>
            <mxPoint x="648" y="1110" as="targetPoint"/>
          </mxGeometry>
        </mxCell>
        <mxCell id="clvgTeOOFxfK2EVjI2t1-33" value="" style="endArrow=classic;html=1;exitX=1;exitY=0.5;exitDx=0;exitDy=0;entryX=0;entryY=0.5;entryDx=0;entryDy=0;fontSize=25;fontStyle=2;fontFamily=Times New Roman;" parent="1" edge="1">
          <mxGeometry width="50" height="50" relative="1" as="geometry">
            <mxPoint x="588" y="1109.5" as="sourcePoint"/>
            <mxPoint x="494" y="1109.5" as="targetPoint"/>
          </mxGeometry>
        </mxCell>
        <mxCell id="clvgTeOOFxfK2EVjI2t1-34" value="&lt;b style=&quot;font-size: 25px;&quot;&gt;&lt;font style=&quot;font-size: 25px;&quot;&gt;...&lt;/font&gt;&lt;/b&gt;" style="text;html=1;strokeColor=none;fillColor=none;align=center;verticalAlign=middle;whiteSpace=wrap;rounded=0;fontSize=25;fontStyle=2;fontFamily=Times New Roman;" parent="1" vertex="1">
          <mxGeometry x="543" y="1160" width="10" as="geometry"/>
        </mxCell>
        <mxCell id="clvgTeOOFxfK2EVjI2t1-35" value="&lt;b style=&quot;font-size: 25px;&quot;&gt;&lt;font style=&quot;font-size: 25px;&quot;&gt;...&lt;/font&gt;&lt;/b&gt;" style="text;html=1;strokeColor=none;fillColor=none;align=center;verticalAlign=middle;whiteSpace=wrap;rounded=0;fontSize=25;fontStyle=2;fontFamily=Times New Roman;" parent="1" vertex="1">
          <mxGeometry x="465" y="1102" width="10" as="geometry"/>
        </mxCell>
        <mxCell id="clvgTeOOFxfK2EVjI2t1-36" value="" style="endArrow=classic;html=1;exitX=1;exitY=0.5;exitDx=0;exitDy=0;entryX=0;entryY=0.5;entryDx=0;entryDy=0;fontSize=25;fontStyle=2;fontFamily=Times New Roman;" parent="1" edge="1">
          <mxGeometry width="50" height="50" relative="1" as="geometry">
            <mxPoint x="120" y="1170" as="sourcePoint"/>
            <mxPoint x="214" y="1170" as="targetPoint"/>
          </mxGeometry>
        </mxCell>
        <mxCell id="clvgTeOOFxfK2EVjI2t1-37" value="" style="edgeStyle=orthogonalEdgeStyle;rounded=0;orthogonalLoop=1;jettySize=auto;html=1;entryX=0;entryY=0.5;entryDx=0;entryDy=0;fontSize=25;fontStyle=2;fontFamily=Times New Roman;" parent="1" edge="1">
          <mxGeometry relative="1" as="geometry">
            <mxPoint x="134" y="1110" as="sourcePoint"/>
            <mxPoint x="40" y="1110" as="targetPoint"/>
          </mxGeometry>
        </mxCell>
        <mxCell id="clvgTeOOFxfK2EVjI2t1-38" value="&lt;i&gt;y&lt;span style=&quot;font-size: 20.8333px&quot;&gt;&lt;sub&gt;2&lt;/sub&gt;&lt;/span&gt;&lt;/i&gt;" style="text;html=1;strokeColor=none;fillColor=none;align=center;verticalAlign=middle;whiteSpace=wrap;rounded=0;fontSize=25;fontFamily=Times New Roman;" parent="1" vertex="1">
          <mxGeometry x="328" y="990" width="40" height="20" as="geometry"/>
        </mxCell>
        <mxCell id="clvgTeOOFxfK2EVjI2t1-39" value="" style="html=1;verticalAlign=bottom;endArrow=block;fontSize=25;fontFamily=Times New Roman;" parent="1" edge="1">
          <mxGeometry width="80" relative="1" as="geometry">
            <mxPoint x="407" y="1059" as="sourcePoint"/>
            <mxPoint x="437" y="1059" as="targetPoint"/>
          </mxGeometry>
        </mxCell>
        <mxCell id="clvgTeOOFxfK2EVjI2t1-40" value="&lt;i&gt;y&lt;span style=&quot;font-size: 20.8333px&quot;&gt;&lt;sub&gt;2&lt;/sub&gt;&lt;/span&gt;&lt;/i&gt;" style="text;html=1;strokeColor=none;fillColor=none;align=center;verticalAlign=middle;whiteSpace=wrap;rounded=0;fontSize=25;fontFamily=Times New Roman;" parent="1" vertex="1">
          <mxGeometry x="398" y="1067" width="40" height="20" as="geometry"/>
        </mxCell>
        <mxCell id="clvgTeOOFxfK2EVjI2t1-41" value="" style="html=1;verticalAlign=bottom;endArrow=block;fontSize=25;fontFamily=Times New Roman;" parent="1" edge="1">
          <mxGeometry width="80" relative="1" as="geometry">
            <mxPoint x="707" y="1059" as="sourcePoint"/>
            <mxPoint x="737" y="1059" as="targetPoint"/>
          </mxGeometry>
        </mxCell>
        <mxCell id="clvgTeOOFxfK2EVjI2t1-42" value="&lt;i&gt;y&lt;span style=&quot;font-size: 17.3611px&quot;&gt;&lt;sub&gt;i&lt;/sub&gt;&lt;/span&gt;&lt;/i&gt;" style="text;html=1;strokeColor=none;fillColor=none;align=center;verticalAlign=middle;whiteSpace=wrap;rounded=0;fontSize=25;fontFamily=Times New Roman;" parent="1" vertex="1">
          <mxGeometry x="698" y="1067" width="40" height="22" as="geometry"/>
        </mxCell>
        <mxCell id="clvgTeOOFxfK2EVjI2t1-43" value="&lt;i&gt;y&lt;span style=&quot;font-size: 20.8333px&quot;&gt;&lt;sub&gt;1&lt;/sub&gt;&lt;/span&gt;&lt;/i&gt;" style="text;html=1;strokeColor=none;fillColor=none;align=center;verticalAlign=middle;whiteSpace=wrap;rounded=0;fontSize=25;fontFamily=Times New Roman;" parent="1" vertex="1">
          <mxGeometry x="238" y="1063" width="40" height="20" as="geometry"/>
        </mxCell>
        <mxCell id="clvgTeOOFxfK2EVjI2t1-44" value="" style="html=1;verticalAlign=bottom;endArrow=block;fontSize=25;fontFamily=Times New Roman;" parent="1" edge="1">
          <mxGeometry width="80" relative="1" as="geometry">
            <mxPoint x="317" y="1041" as="sourcePoint"/>
            <mxPoint x="287" y="1041" as="targetPoint"/>
          </mxGeometry>
        </mxCell>
        <mxCell id="clvgTeOOFxfK2EVjI2t1-45" value="&lt;i&gt;y&lt;span style=&quot;font-size: 20.8333px&quot;&gt;&lt;sub&gt;2&lt;/sub&gt;&lt;/span&gt;&lt;/i&gt;" style="text;html=1;strokeColor=none;fillColor=none;align=center;verticalAlign=middle;whiteSpace=wrap;rounded=0;fontSize=25;fontFamily=Times New Roman;" parent="1" vertex="1">
          <mxGeometry x="278" y="1049" width="40" height="20" as="geometry"/>
        </mxCell>
        <mxCell id="clvgTeOOFxfK2EVjI2t1-46" value="" style="html=1;verticalAlign=bottom;endArrow=block;fontSize=25;fontFamily=Times New Roman;" parent="1" edge="1">
          <mxGeometry width="80" relative="1" as="geometry">
            <mxPoint x="163" y="1041" as="sourcePoint"/>
            <mxPoint x="133" y="1041" as="targetPoint"/>
          </mxGeometry>
        </mxCell>
        <mxCell id="clvgTeOOFxfK2EVjI2t1-47" value="&lt;i&gt;y&lt;span style=&quot;font-size: 17.3611px&quot;&gt;&lt;sub&gt;1&lt;/sub&gt;&lt;/span&gt;&lt;/i&gt;" style="text;html=1;strokeColor=none;fillColor=none;align=center;verticalAlign=middle;whiteSpace=wrap;rounded=0;fontSize=25;fontFamily=Times New Roman;" parent="1" vertex="1">
          <mxGeometry x="124" y="1049" width="40" height="20" as="geometry"/>
        </mxCell>
        <mxCell id="clvgTeOOFxfK2EVjI2t1-48" value="" style="html=1;verticalAlign=bottom;endArrow=block;fontSize=25;fontFamily=Times New Roman;" parent="1" edge="1">
          <mxGeometry width="80" relative="1" as="geometry">
            <mxPoint x="617" y="1034" as="sourcePoint"/>
            <mxPoint x="587" y="1034" as="targetPoint"/>
          </mxGeometry>
        </mxCell>
        <mxCell id="clvgTeOOFxfK2EVjI2t1-49" value="&lt;i&gt;y&lt;span style=&quot;font-size: 17.3611px&quot;&gt;&lt;sub&gt;i&lt;/sub&gt;&lt;/span&gt;&lt;/i&gt;" style="text;html=1;strokeColor=none;fillColor=none;align=center;verticalAlign=middle;whiteSpace=wrap;rounded=0;fontSize=25;fontFamily=Times New Roman;" parent="1" vertex="1">
          <mxGeometry x="578" y="1042" width="40" height="22" as="geometry"/>
        </mxCell>
        <mxCell id="clvgTeOOFxfK2EVjI2t1-50" value="&lt;i&gt;y&lt;span style=&quot;font-size: 17.3611px&quot;&gt;&lt;sub&gt;i&lt;/sub&gt;&lt;/span&gt;&lt;/i&gt;" style="text;html=1;strokeColor=none;fillColor=none;align=center;verticalAlign=middle;whiteSpace=wrap;rounded=0;fontSize=25;fontFamily=Times New Roman;" parent="1" vertex="1">
          <mxGeometry x="628" y="990" width="40" height="20" as="geometry"/>
        </mxCell>
        <mxCell id="clvgTeOOFxfK2EVjI2t1-51" value="&lt;i&gt;y&lt;span style=&quot;font-size: 20.8333px&quot;&gt;&lt;sub&gt;1&lt;/sub&gt;&lt;/span&gt;&lt;/i&gt;" style="text;html=1;strokeColor=none;fillColor=none;align=center;verticalAlign=middle;whiteSpace=wrap;rounded=0;fontSize=25;fontFamily=Times New Roman;" parent="1" vertex="1">
          <mxGeometry x="174" y="990" width="40" height="20" as="geometry"/>
        </mxCell>
        <mxCell id="clvgTeOOFxfK2EVjI2t1-52" value="A&lt;sub&gt;&lt;i&gt;i&lt;/i&gt;&lt;/sub&gt;" style="text;html=1;strokeColor=none;fillColor=none;align=center;verticalAlign=middle;whiteSpace=wrap;rounded=0;fontSize=25;fontFamily=Times New Roman;" parent="1" vertex="1">
          <mxGeometry x="678" y="1160" width="40" height="20" as="geometry"/>
        </mxCell>
        <mxCell id="clvgTeOOFxfK2EVjI2t1-53" value="A&lt;sub&gt;&lt;i&gt;2&lt;/i&gt;&lt;/sub&gt;" style="text;html=1;strokeColor=none;fillColor=none;align=center;verticalAlign=middle;whiteSpace=wrap;rounded=0;fontSize=25;fontFamily=Times New Roman;" parent="1" vertex="1">
          <mxGeometry x="378" y="1160" width="40" height="20" as="geometry"/>
        </mxCell>
        <mxCell id="clvgTeOOFxfK2EVjI2t1-54" value="A&lt;sub&gt;&lt;i&gt;1&lt;/i&gt;&lt;/sub&gt;" style="text;html=1;strokeColor=none;fillColor=none;align=center;verticalAlign=middle;whiteSpace=wrap;rounded=0;fontSize=25;fontFamily=Times New Roman;" parent="1" vertex="1">
          <mxGeometry x="224" y="1160" width="40" height="20" as="geometry"/>
        </mxCell>
        <mxCell id="clvgTeOOFxfK2EVjI2t1-55" value="A&lt;sup&gt;&#39;&lt;/sup&gt;&lt;sub&gt;&lt;i&gt;2&lt;/i&gt;&lt;/sub&gt;" style="text;html=1;strokeColor=none;fillColor=none;align=center;verticalAlign=middle;whiteSpace=wrap;rounded=0;fontSize=25;fontFamily=Times New Roman;" parent="1" vertex="1">
          <mxGeometry x="298" y="1100" width="40" height="20" as="geometry"/>
        </mxCell>
        <mxCell id="clvgTeOOFxfK2EVjI2t1-56" value="A&lt;sup&gt;&#39;&lt;/sup&gt;&lt;sub&gt;&lt;i&gt;1&lt;/i&gt;&lt;/sub&gt;" style="text;html=1;strokeColor=none;fillColor=none;align=center;verticalAlign=middle;whiteSpace=wrap;rounded=0;fontSize=25;fontFamily=Times New Roman;" parent="1" vertex="1">
          <mxGeometry x="144" y="1100" width="40" height="20" as="geometry"/>
        </mxCell>
        <mxCell id="clvgTeOOFxfK2EVjI2t1-57" value="A&lt;sup&gt;&#39;&lt;/sup&gt;&lt;sub&gt;&lt;i&gt;i&lt;/i&gt;&lt;/sub&gt;" style="text;html=1;strokeColor=none;fillColor=none;align=center;verticalAlign=middle;whiteSpace=wrap;rounded=0;fontSize=25;fontFamily=Times New Roman;" parent="1" vertex="1">
          <mxGeometry x="598" y="1100" width="40" height="20" as="geometry"/>
        </mxCell>
        <mxCell id="clvgTeOOFxfK2EVjI2t1-58" value="&lt;b style=&quot;font-size: 25px;&quot;&gt;&lt;font style=&quot;font-size: 25px;&quot;&gt;...&lt;/font&gt;&lt;/b&gt;" style="text;html=1;strokeColor=none;fillColor=none;align=center;verticalAlign=middle;whiteSpace=wrap;rounded=0;fontSize=25;fontStyle=2;fontFamily=Times New Roman;" parent="1" vertex="1">
          <mxGeometry x="503" y="1265" width="10" as="geometry"/>
        </mxCell>
        <mxCell id="clvgTeOOFxfK2EVjI2t1-59" value="&lt;b style=&quot;font-size: 25px;&quot;&gt;&lt;font style=&quot;font-size: 25px;&quot;&gt;...&lt;/font&gt;&lt;/b&gt;" style="text;html=1;strokeColor=none;fillColor=none;align=center;verticalAlign=middle;whiteSpace=wrap;rounded=0;fontSize=25;fontStyle=2;fontFamily=Times New Roman;" parent="1" vertex="1">
          <mxGeometry x="733" y="1270" width="10" as="geometry"/>
        </mxCell>
        <mxCell id="clvgTeOOFxfK2EVjI2t1-60" value="&lt;b style=&quot;font-size: 25px;&quot;&gt;&lt;font style=&quot;font-size: 25px;&quot;&gt;...&lt;/font&gt;&lt;/b&gt;" style="text;html=1;strokeColor=none;fillColor=none;align=center;verticalAlign=middle;whiteSpace=wrap;rounded=0;fontSize=25;fontStyle=2;fontFamily=Times New Roman;" parent="1" vertex="1">
          <mxGeometry x="804" y="1104" width="10" as="geometry"/>
        </mxCell>
        <mxCell id="clvgTeOOFxfK2EVjI2t1-61" value="" style="ellipse;whiteSpace=wrap;html=1;aspect=fixed;fontSize=25;fontStyle=2;fontFamily=Times New Roman;fillColor=none;strokeColor=#FF0000;" parent="1" vertex="1">
          <mxGeometry x="90" y="222" width="60" height="60" as="geometry"/>
        </mxCell>
        <mxCell id="clvgTeOOFxfK2EVjI2t1-65" value="" style="ellipse;whiteSpace=wrap;html=1;aspect=fixed;fontSize=25;fontStyle=2;fontFamily=Times New Roman;fillColor=none;strokeColor=#0000FF;" parent="1" vertex="1">
          <mxGeometry x="160" y="222" width="60" height="60" as="geometry"/>
        </mxCell>
        <mxCell id="clvgTeOOFxfK2EVjI2t1-66" value="" style="ellipse;whiteSpace=wrap;html=1;aspect=fixed;fontSize=25;fontStyle=2;fontFamily=Times New Roman;fillColor=none;strokeColor=#FF0000;" parent="1" vertex="1">
          <mxGeometry x="244" y="222" width="60" height="60" as="geometry"/>
        </mxCell>
        <mxCell id="clvgTeOOFxfK2EVjI2t1-68" value="" style="ellipse;whiteSpace=wrap;html=1;aspect=fixed;fontSize=25;fontStyle=2;fontFamily=Times New Roman;fillColor=none;strokeColor=#0000FF;" parent="1" vertex="1">
          <mxGeometry x="314" y="222" width="60" height="60" as="geometry"/>
        </mxCell>
        <mxCell id="clvgTeOOFxfK2EVjI2t1-69" value="" style="ellipse;whiteSpace=wrap;html=1;aspect=fixed;fontSize=25;fontStyle=2;fontFamily=Times New Roman;fillColor=none;strokeColor=#FF0000;" parent="1" vertex="1">
          <mxGeometry x="544" y="222" width="60" height="60" as="geometry"/>
        </mxCell>
        <mxCell id="clvgTeOOFxfK2EVjI2t1-70" value="" style="ellipse;whiteSpace=wrap;html=1;aspect=fixed;fontSize=25;fontStyle=2;fontFamily=Times New Roman;fillColor=none;strokeColor=#0000FF;" parent="1" vertex="1">
          <mxGeometry x="624" y="222" width="60" height="60" as="geometry"/>
        </mxCell>
        <mxCell id="tPSSgy20HXyKbWYkyoau-16" value="" style="endArrow=classic;html=1;strokeColor=#FF0000;" edge="1" parent="1">
          <mxGeometry width="50" height="50" relative="1" as="geometry">
            <mxPoint x="120" y="222" as="sourcePoint"/>
            <mxPoint x="210" y="160" as="targetPoint"/>
          </mxGeometry>
        </mxCell>
        <mxCell id="tPSSgy20HXyKbWYkyoau-17" value="" style="endArrow=classic;html=1;strokeColor=#FF0000;" edge="1" parent="1">
          <mxGeometry width="50" height="50" relative="1" as="geometry">
            <mxPoint x="274" y="222" as="sourcePoint"/>
            <mxPoint x="210" y="160" as="targetPoint"/>
          </mxGeometry>
        </mxCell>
        <mxCell id="tPSSgy20HXyKbWYkyoau-18" value="" style="endArrow=classic;html=1;exitX=0.5;exitY=0;exitDx=0;exitDy=0;strokeColor=#FF0000;" edge="1" parent="1" source="clvgTeOOFxfK2EVjI2t1-69">
          <mxGeometry width="50" height="50" relative="1" as="geometry">
            <mxPoint x="420" y="160" as="sourcePoint"/>
            <mxPoint x="210" y="160" as="targetPoint"/>
          </mxGeometry>
        </mxCell>
        <mxCell id="tPSSgy20HXyKbWYkyoau-27" value="" style="endArrow=classic;html=1;exitX=0.5;exitY=0;exitDx=0;exitDy=0;" edge="1" parent="1" source="clvgTeOOFxfK2EVjI2t1-65">
          <mxGeometry width="50" height="50" relative="1" as="geometry">
            <mxPoint x="190" y="220" as="sourcePoint"/>
            <mxPoint x="520" y="160" as="targetPoint"/>
          </mxGeometry>
        </mxCell>
        <mxCell id="tPSSgy20HXyKbWYkyoau-28" value="" style="endArrow=classic;html=1;exitX=0.5;exitY=0;exitDx=0;exitDy=0;strokeColor=#0000FF;" edge="1" parent="1" source="clvgTeOOFxfK2EVjI2t1-70">
          <mxGeometry width="50" height="50" relative="1" as="geometry">
            <mxPoint x="614" y="180" as="sourcePoint"/>
            <mxPoint x="520" y="160" as="targetPoint"/>
          </mxGeometry>
        </mxCell>
        <mxCell id="tPSSgy20HXyKbWYkyoau-29" value="" style="endArrow=classic;html=1;" edge="1" parent="1">
          <mxGeometry width="50" height="50" relative="1" as="geometry">
            <mxPoint x="344" y="222" as="sourcePoint"/>
            <mxPoint x="520" y="160" as="targetPoint"/>
          </mxGeometry>
        </mxCell>
        <mxCell id="tPSSgy20HXyKbWYkyoau-34" value="" style="html=1;verticalAlign=bottom;endArrow=block;fontSize=25;fontFamily=Times New Roman;" edge="1" parent="1">
          <mxGeometry width="80" relative="1" as="geometry">
            <mxPoint x="258" y="120" as="sourcePoint"/>
            <mxPoint x="228" y="120" as="targetPoint"/>
          </mxGeometry>
        </mxCell>
        <mxCell id="tPSSgy20HXyKbWYkyoau-35" value="&lt;i&gt;y&lt;span style=&quot;font-size: 17.3611px&quot;&gt;&lt;sub&gt;i&lt;/sub&gt;&lt;/span&gt;&lt;/i&gt;" style="text;html=1;strokeColor=none;fillColor=none;align=center;verticalAlign=middle;whiteSpace=wrap;rounded=0;fontSize=25;fontFamily=Times New Roman;" vertex="1" parent="1">
          <mxGeometry x="223" y="128" width="40" height="20" as="geometry"/>
        </mxCell>
        <mxCell id="tPSSgy20HXyKbWYkyoau-36" value="&lt;font style=&quot;font-size: 25px&quot; face=&quot;Times New Roman&quot;&gt;&lt;i&gt;max&lt;/i&gt;(&lt;/font&gt;" style="text;html=1;strokeColor=none;fillColor=none;align=center;verticalAlign=middle;whiteSpace=wrap;rounded=0;" vertex="1" parent="1">
          <mxGeometry x="184" y="128" width="36" height="20" as="geometry"/>
        </mxCell>
        <mxCell id="tPSSgy20HXyKbWYkyoau-37" value="&lt;font style=&quot;font-size: 25px ; font-style: normal&quot; face=&quot;Times New Roman&quot;&gt;)&lt;/font&gt;" style="text;html=1;strokeColor=none;fillColor=none;align=center;verticalAlign=middle;whiteSpace=wrap;rounded=0;fontStyle=2" vertex="1" parent="1">
          <mxGeometry x="257" y="128" width="6" height="20" as="geometry"/>
        </mxCell>
        <mxCell id="tPSSgy20HXyKbWYkyoau-41" value="&lt;i&gt;y&lt;span style=&quot;font-size: 17.3611px&quot;&gt;&lt;sub&gt;i&lt;/sub&gt;&lt;/span&gt;&lt;/i&gt;" style="text;html=1;strokeColor=none;fillColor=none;align=center;verticalAlign=middle;whiteSpace=wrap;rounded=0;fontSize=25;fontFamily=Times New Roman;" vertex="1" parent="1">
          <mxGeometry x="518" y="128" width="40" height="20" as="geometry"/>
        </mxCell>
        <mxCell id="tPSSgy20HXyKbWYkyoau-42" value="&lt;font style=&quot;font-size: 25px&quot; face=&quot;Times New Roman&quot;&gt;&lt;i&gt;max&lt;/i&gt;(&lt;/font&gt;" style="text;html=1;strokeColor=none;fillColor=none;align=center;verticalAlign=middle;whiteSpace=wrap;rounded=0;" vertex="1" parent="1">
          <mxGeometry x="479" y="128" width="36" height="20" as="geometry"/>
        </mxCell>
        <mxCell id="tPSSgy20HXyKbWYkyoau-43" value="&lt;font style=&quot;font-size: 25px ; font-style: normal&quot; face=&quot;Times New Roman&quot;&gt;)&lt;/font&gt;" style="text;html=1;strokeColor=none;fillColor=none;align=center;verticalAlign=middle;whiteSpace=wrap;rounded=0;fontStyle=2" vertex="1" parent="1">
          <mxGeometry x="552" y="128" width="6" height="20" as="geometry"/>
        </mxCell>
        <mxCell id="tPSSgy20HXyKbWYkyoau-44" value="" style="endArrow=classic;html=1;" edge="1" parent="1">
          <mxGeometry width="50" height="50" relative="1" as="geometry">
            <mxPoint x="344" y="222" as="sourcePoint"/>
            <mxPoint x="520" y="160" as="targetPoint"/>
          </mxGeometry>
        </mxCell>
        <mxCell id="tPSSgy20HXyKbWYkyoau-45" value="" style="endArrow=classic;html=1;exitX=0.5;exitY=0;exitDx=0;exitDy=0;strokeColor=#0000FF;" edge="1" parent="1">
          <mxGeometry width="50" height="50" relative="1" as="geometry">
            <mxPoint x="190" y="222" as="sourcePoint"/>
            <mxPoint x="520" y="160" as="targetPoint"/>
          </mxGeometry>
        </mxCell>
        <mxCell id="tPSSgy20HXyKbWYkyoau-46" value="" style="endArrow=classic;html=1;strokeColor=#0000FF;" edge="1" parent="1">
          <mxGeometry width="50" height="50" relative="1" as="geometry">
            <mxPoint x="344" y="222" as="sourcePoint"/>
            <mxPoint x="520" y="160" as="targetPoint"/>
          </mxGeometry>
        </mxCell>
        <mxCell id="tPSSgy20HXyKbWYkyoau-47" value="" style="endArrow=classic;html=1;exitX=0.5;exitY=0;exitDx=0;exitDy=0;strokeColor=#0000FF;" edge="1" parent="1">
          <mxGeometry width="50" height="50" relative="1" as="geometry">
            <mxPoint x="190" y="222" as="sourcePoint"/>
            <mxPoint x="520" y="160" as="targetPoint"/>
          </mxGeometry>
        </mxCell>
      </root>
    </mxGraphModel>
  </diagram>
</mxfile>
